HIERARCHY
ROOT root     
{
	OFFSET 0.0000 0.0000 0.0000
	CHANNELS 6 Xposition Yposition Zposition Zrotation Yrotation Xrotation
	JOINT pelvis   
	{
		OFFSET 0.0000 0.0000 0.0000
		CHANNELS 3 Zrotation Yrotation Xrotation
		JOINT thorax   
		{
			OFFSET 0.0000 23.0750 -5.0000
			CHANNELS 3 Zrotation Yrotation Xrotation
			JOINT rclavicle
			{
				OFFSET 0.0000 28.0009 0.0000
				CHANNELS 3 Zrotation Yrotation Xrotation
				JOINT rhumerus 
				{
					OFFSET -18.5725 5.5939 0.0000
					CHANNELS 3 Zrotation Yrotation Xrotation
					JOINT rradius  
					{
						OFFSET -24.8459 0.0000 0.0000
						CHANNELS 3 Zrotation Yrotation Xrotation
						JOINT rhand    
						{
							OFFSET -24.5477 0.0000 0.0000
							CHANNELS 3 Zrotation Yrotation Xrotation
							End Site
							{
								OFFSET -8.1826 0.0000 0.0000
							}
						}
					}
				}
			}
			JOINT lclavicle
			{
				OFFSET 0.0000 28.0009 0.0000
				CHANNELS 3 Zrotation Yrotation Xrotation
				JOINT lhumerus 
				{
					OFFSET 18.5725 5.5939 0.0000
					CHANNELS 3 Zrotation Yrotation Xrotation
					JOINT lradius  
					{
						OFFSET 24.8459 0.0000 0.0000
						CHANNELS 3 Zrotation Yrotation Xrotation
						JOINT lhand    
						{
							OFFSET 24.5477 0.0000 0.0000
							CHANNELS 3 Zrotation Yrotation Xrotation
							End Site
							{
								OFFSET 8.1826 0.0000 0.0000
							}
						}
					}
				}
			}
			JOINT head     
			{
				OFFSET 0.0000 35.2030 0.0000
				CHANNELS 3 Zrotation Yrotation Xrotation
				End Site
				{
					OFFSET 0.0000 11.7343 0.0000
				}
			}
		}
		JOINT rfemur   
		{
			OFFSET -8.2817 0.0000 0.0000
			CHANNELS 3 Zrotation Yrotation Xrotation
			JOINT rtibia   
			{
				OFFSET 0.0000 -43.3627 0.0000
				CHANNELS 3 Zrotation Yrotation Xrotation
				JOINT rfoot    
				{
					OFFSET 0.0000 -38.2947 0.0000
					CHANNELS 3 Zrotation Yrotation Xrotation
					JOINT rtoes    
					{
						OFFSET 0.0000 0.0000 16.6054
						CHANNELS 3 Zrotation Yrotation Xrotation
						End Site
						{
							OFFSET 0.0000 0.0000 5.5351
						}
					}
				}
			}
		}
		JOINT lfemur   
		{
			OFFSET 8.2817 0.0000 0.0000
			CHANNELS 3 Zrotation Yrotation Xrotation
			JOINT ltibia   
			{
				OFFSET 0.0000 -43.3627 0.0000
				CHANNELS 3 Zrotation Yrotation Xrotation
				JOINT lfoot    
				{
					OFFSET 0.0000 -38.2947 0.0000
					CHANNELS 3 Zrotation Yrotation Xrotation
					JOINT ltoes    
					{
						OFFSET 0.0000 0.0000 16.6054
						CHANNELS 3 Zrotation Yrotation Xrotation
						End Site
						{
							OFFSET 0.0000 0.0000 5.5351
						}
					}
				}
			}
		}
	}
}
MOTION
Frames: 19
Frame Time: .0333333
19.995 80.455 11.484 -108.377 -75.6662 145.366 0 -0 0 6.06458 0.270014 19.5749 18.0539 -9.86643 5.47819e-05 48.7146 -6.22131 0.156695 -180 64.9982 -180 -7.93592 6.45713 -0.448395 -15.4617 12.2502 -1.10521e-05 -45.4458 14.8426 -15.4674 -180 -71.6361 180 6.02582 2.0108 0.105803 8.10489 -0.0710356 -22.5577 -1.57502 0.971198 -104.555 -0 -0 3.23868 1.52685e-06 -2.45698 18.5922 -0.783807 4.85341e-06 -72.7429 -1.09544 12.4227 -70.5094 -0 -0 52.025 -4.5776e-05 17.0462 -8.39917 -2.56436 1.54261e-05 -27.6784 
20.11 80.2 11.474 -108.95 -75.4028 146.107 0 -0 0 6.1385 0.95369 19.8736 18.1989 -9.56769 -2.03337e-05 49.6468 -5.91853 -0.247631 -180 65.2825 -180 -8.45044 6.52873 -0.4829 -15.7077 12.056 1.43308e-05 -45.9926 14.8847 -15.0816 -180 -72.0567 180 5.99991 2.02994 0.106398 7.99779 -0.171859 -22.5815 -1.59851 1.20331 -104.543 -0 -0 3.96556 -1.43564e-06 -1.49642 19.589 -0.501803 6.16869e-06 -74.5121 -0.830125 12.4115 -71.1208 -0 -0 52.8551 -3.79743e-05 17.4334 -8.72309 -2.7266 1.07393e-05 -27.5236 
20.206 79.967 11.453 -109.333 -75.1554 146.627 0 -0 0 6.22913 1.5823 20.1557 18.3292 -9.28162 -5.70104e-05 50.531 -5.55314 -0.512298 -180 65.6568 -180 -9.01879 6.61317 -0.522094 -15.9296 11.8708 -5.77386e-05 -46.5582 14.9113 -14.6669 -180 -72.5235 180 5.95845 2.05093 0.106701 7.9164 -0.255354 -22.6191 -1.47442 1.45349 -104.394 -0 -0 4.83993 3.28261e-07 -0.325597 20.9515 -0.116399 3.52094e-07 -76.1285 -0.54377 12.3943 -71.6521 -0 -0 53.6163 2.47903e-07 17.7848 -9.02586 -2.88083 9.32718e-06 -27.3487 
20.281 79.758 11.425 -109.493 -74.9474 146.897 0 -0 0 6.33361 2.13144 20.415 18.4421 -9.00966 -1.11868e-05 51.3556 -5.14511 -0.637097 -180 66.1087 -180 -9.62557 6.71257 -0.565787 -16.1294 11.7027 -5.04962e-05 -47.1378 14.9207 -14.221 -180 -73.0271 180 5.90286 2.07342 0.1069 7.86539 -0.325287 -22.6758 -1.23188 1.68677 -104.063 -0 -0 5.72102 -7.19444e-06 0.973799 22.5602 0.373697 -4.3201e-06 -77.3132 -0.245711 12.3547 -72.1006 -0 -0 54.2935 -7.07063e-05 18.0932 -9.30112 -3.02271 -9.58375e-06 -27.1585 
20.335 79.576 11.39 -109.424 -74.7891 146.92 0 -0 0 6.44539 2.58453 20.6424 18.5393 -8.7563 3.56179e-05 52.1147 -4.71529 -0.626329 -180 66.6152 -180 -10.2477 6.82795 -0.612999 -16.3077 11.5565 -4.06763e-05 -47.7172 14.9173 -13.7432 -180 -73.561 180 5.83525 2.09683 0.1069 7.84925 -0.389257 -22.7597 -0.895228 1.87373 -103.537 -0 -0 6.51582 3.1804e-06 2.30879 24.253 0.94879 3.81246e-07 -77.9216 0.0495925 12.278 -72.4732 -0 -0 54.8761 2.66423e-05 18.3503 -9.54159 -3.14716 -7.21927e-06 -26.9615 
20.37 79.424 11.352 -109.126 -74.6989 146.705 0 -0 0 6.55166 2.93427 20.8248 18.6227 -8.52557 -7.86621e-05 52.8044 -4.28714 -0.489459 -180 67.155 -180 -10.8565 6.95881 -0.662091 -16.4604 11.4371 2.11983e-05 -48.2853 14.9034 -13.2336 -180 -74.1118 180 5.75817 2.12048 0.106698 7.87256 -0.456364 -22.8735 -0.507394 1.99072 -102.816 -0 -0 7.16143 9.07944e-07 3.55154 25.8669 1.55111 8.2758e-06 -77.9881 0.32499 12.1559 -72.7801 -0 -0 55.3498 -4.83819e-05 18.5497 -9.73916 -3.24881 1.61773e-05 -26.7714 
20.391 79.304 11.312 -108.619 -74.6885 146.288 0 -0 0 6.63851 3.18055 20.9477 18.6935 -8.32304 3.01598e-05 53.4276 -3.88106 -0.239537 -180 67.7092 -180 -11.4203 7.10287 -0.711091 -16.5882 11.343 -1.73556e-06 -48.8266 14.8865 -12.6954 -180 -74.6762 180 5.67323 2.14345 0.106203 7.93804 -0.536427 -23.0212 -0.0968897 2.02508 -101.921 -0 -0 7.6515 9.30984e-06 4.5869 27.2577 2.10434 -2.33652e-06 -77.678 0.562179 11.9847 -73.0349 -0 -0 55.7056 -9.50305e-05 18.686 -9.88487 -3.32283 -1.0327e-05 -26.6034 
20.4 79.215 11.271 -107.934 -74.7661 145.714 0 -0 0 6.68329 3.32684 20.9945 18.7576 -8.15092 3.51308e-05 53.9837 -3.51844 0.107643 -180 68.2515 -180 -11.9077 7.25665 -0.757841 -16.6897 11.2739 -6.17994e-05 -49.3278 14.8707 -12.1322 -180 -75.2335 180 5.58139 2.16484 0.105499 8.04787 -0.636462 -23.1947 0.315524 1.97091 -100.897 -0 -0 8.02971 -1.73541e-05 5.32297 28.3109 2.53012 -1.98232e-05 -77.2185 0.738748 11.7617 -73.2525 -0 -0 55.936 1.16371e-05 18.7548 -9.97393 -3.36568 -4.00841e-06 -26.4703 
20.401 79.161 11.229 -107.063 -74.9203 144.978 0 -0 0 6.69699 3.39337 20.9702 18.8109 -8.02614 2.53806e-05 54.4806 -3.19842 0.537538 -180 68.7687 -180 -12.2888 7.41856 -0.799776 -16.7706 11.2192 -8.59681e-05 -49.7756 14.8589 -11.5521 -180 -75.7728 180 5.48446 2.18185 0.1045 8.18848 -0.770608 -23.3994 0.701713 1.83621 -99.7571 -0 -0 8.31458 6.35077e-06 5.66884 28.9971 2.75486 -4.45051e-05 -76.8125 0.856042 11.5001 -73.4388 -0 -0 56.0386 -5.4153e-05 18.754 -10.0016 -3.37475 -2.72804e-05 -26.3833 
20.396 79.139 11.188 -106.055 -75.1644 144.137 0 -0 0 6.64851 3.38369 20.8616 18.8638 -7.94147 2.29091e-05 54.9196 -2.94059 1.03163 -180 69.2358 -180 -12.5418 7.58346 -0.834563 -16.8271 11.1802 1.47216e-05 -50.1606 14.856 -10.9638 -180 -76.2798 180 5.38097 2.19488 0.103201 8.36025 -0.934966 -23.6194 1.05857 1.62428 -98.5676 -0 -0 8.61191 -7.02897e-05 5.61244 29.2763 2.75127 -2.15971e-05 -76.5926 0.890135 11.1995 -73.6041 -0 -0 56.0121 3.65797e-05 18.6837 -9.96751 -3.34994 1.241e-05 -26.3503 
20.386 79.147 11.145 -104.928 -75.4805 143.207 0 -0 0 6.54235 3.31565 20.6756 18.9146 -7.90363 5.77535e-06 55.3042 -2.74166 1.57457 -180 69.6408 -180 -12.6523 7.74887 -0.860359 -16.8661 11.1502 -5.16272e-05 -50.4749 14.8636 -10.3787 -180 -76.7431 180 5.27092 2.20209 0.1014 8.54786 -1.13139 -23.8495 1.37772 1.34944 -97.3545 -0 -0 8.97855 3.00874e-05 5.15293 29.1818 2.51772 -4.81376e-05 -76.5901 0.843325 10.8719 -73.7458 -0 -0 55.8644 -1.75706e-05 18.5471 -9.87447 -3.2929 -1.57449e-07 -26.3771 
20.372 79.183 11.102 -103.707 -75.8669 142.205 0 -0 0 6.37523 3.20089 20.4218 18.9654 -7.91185 -1.18236e-06 55.6344 -2.60031 2.15136 -180 69.9778 -180 -12.6154 7.91277 -0.875996 -16.8901 11.1257 7.82324e-05 -50.7163 14.8828 -9.80854 -180 -77.1554 180 5.15372 2.20332 0.0992044 8.73774 -1.3542 -24.0776 1.6653 1.024 -96.1521 -0 -0 9.48847 1.38097e-05 4.34259 28.7516 2.09188 3.32545e-06 -76.7157 0.715326 10.5243 -73.8623 -0 -0 55.6023 -1.08815e-05 18.3492 -9.72781 -3.20754 2.42289e-05 -26.455 
20.351 79.246 11.055 -102.383 -76.2974 141.11 0 -0 0 6.16828 3.05754 20.1237 19.0142 -7.96779 -4.01443e-05 55.9131 -2.50235 2.74911 -180 70.2436 -180 -12.4369 8.07329 -0.881157 -16.9087 11.1041 8.59005e-05 -50.8885 14.9054 -9.26496 -180 -77.5037 180 5.03054 2.19714 0.096503 8.90914 -1.59722 -24.3013 1.92181 0.669094 -94.9567 -0 -0 10.1556 2.22604e-05 3.22955 28.0723 1.52098 -1.14448e-05 -76.9611 0.52629 10.1738 -73.9399 -0 -0 55.238 4.73358e-05 18.0974 -9.53434 -3.09856 -1.55496e-05 -26.5912 
20.322 79.33 11.005 -101.002 -76.7698 139.96 0 -0 0 5.91136 2.89049 19.7866 19.0643 -8.06249 2.25456e-05 56.1373 -2.44653 3.35625 -180 70.4303 -180 -12.1338 8.22928 -0.876128 -16.9223 11.0845 4.26611e-05 -50.9917 14.9362 -8.76039 -180 -77.7927 180 4.90118 2.18545 0.0935002 9.05265 -1.84648 -24.5029 2.17243 0.290115 -93.8084 -0 -0 11.0569 -1.05295e-05 1.93665 27.1928 0.885294 4.96709e-06 -77.0323 0.277404 9.81711 -73.973 -0 -0 54.7867 -5.25496e-05 17.807 -9.30397 -2.97261 -1.82094e-05 -26.7599 
20.284 79.434 10.948 -99.5503 -77.264 138.727 0 -0 0 5.63071 2.71431 19.4408 19.1126 -8.19212 -3.46885e-05 56.3069 -2.41549 3.96335 -180 70.5513 -180 -11.7285 8.37941 -0.862156 -16.9358 11.0702 3.87278e-05 -51.0373 14.9592 -8.30085 180 -78.0096 180 4.76905 2.16817 0.090301 9.15146 -2.09005 -24.6845 2.42037 -0.0939278 -92.6873 -0 -0 12.1694 -1.6811e-06 0.534808 26.2198 0.236294 4.17342e-06 -76.9829 -0.00315885 9.46968 -73.9486 -0 -0 54.2636 4.44127e-05 17.4872 -9.04523 -2.83575 -2.20605e-05 -26.9656 
20.236 79.553 10.886 -98.0707 -77.7619 137.445 0 -0 0 5.32555 2.53506 19.088 19.1607 -8.34666 -9.66579e-05 56.4204 -2.40441 4.56268 -180 70.6117 -180 -11.2537 8.52275 -0.841188 -16.9519 11.0587 -3.71487e-05 -51.0342 14.9809 -7.89816 -180 -78.1591 180 4.63648 2.148 0.0869989 9.19856 -2.31478 -24.8328 2.6713 -0.478328 -91.6095 -0 -0 13.5062 2.55766e-06 -0.8695 25.2087 -0.370404 1.77021e-06 -76.5577 -0.303234 9.12748 -73.8656 -0 -0 53.6807 -4.29824e-06 17.1608 -8.76591 -2.69446 -8.6912e-06 -27.1805 
20.178 79.687 10.814 -96.5444 -78.2563 136.089 0 -0 0 5.0165 2.36267 18.7493 19.2047 -8.51726 -5.65551e-06 56.4768 -2.40059 5.14808 -180 70.6215 -180 -10.7426 8.6585 -0.815611 -16.9692 11.0568 -3.4303e-05 -50.9946 14.9851 -7.55235 -180 -78.2512 180 4.50906 2.12701 0.083702 9.18811 -2.508 -24.9513 2.91978 -0.847973 -90.555 -0 -0 15.0272 -2.02978e-07 -2.21149 24.2282 -0.907889 2.74458e-06 -75.759 -0.595491 8.79966 -73.715 -0 -0 53.0546 7.96866e-05 16.8379 -8.47262 -2.55319 -3.46983e-06 -27.4046 
20.109 79.833 10.734 -95.0138 -78.717 134.696 0 -0 0 4.71261 2.20462 18.4298 19.2458 -8.69394 -2.85292e-05 56.4781 -2.39825 5.71465 -180 70.5914 -180 -10.2279 8.78505 -0.78769 -16.9884 11.0652 3.86722e-06 -50.9282 14.9704 -7.26589 -180 -78.2806 180 4.3912 2.10741 0.080798 9.12053 -2.66051 -25.0405 3.15315 -1.1917 -89.5162 -0 -0 16.6919 1.27103e-05 -3.43238 23.3152 -1.35989 6.49241e-06 -74.6318 -0.860674 8.48692 -73.5034 -0 -0 52.3943 -1.3161e-06 16.5385 -8.16795 -2.41573 2.46237e-05 -27.6292 
20.032 79.99 10.641 -93.4655 -79.1507 133.259 0 -0 0 4.4263 2.06661 18.1319 19.2782 -8.86774 4.20851e-05 56.427 -2.39181 6.2591 -180 70.533 -180 -9.74076 8.90031 -0.759893 -17.0072 11.0892 -4.54685e-05 -50.8466 14.9302 -7.03628 -180 -78.2706 180 4.28914 2.09177 0.0783003 9.00001 -2.76541 -25.1034 3.36244 -1.49653 -88.4835 -0 -0 18.4603 8.88535e-06 -4.48821 22.4815 -1.71923 -2.19965e-05 -73.2572 -1.07813 8.19093 -73.2351 -0 -0 51.7078 2.64967e-05 16.273 -7.85341 -2.28419 1.38123e-05 -27.8543 
